<?xml version="1.0" encoding="UTF-8" standalone="no"?>
<svg
   viewBox="190 290 1122.52 793.70135"
   height="793.70135"
   width="1122.52"
   xml:space="preserve"
   id="svg2"
   version="1.1"
   sodipodi:docname="White-BG-tidy (copy).svg"
   inkscape:version="1.1.2 (0a00cf5339, 2022-02-04)"
   xmlns:inkscape="http://www.inkscape.org/namespaces/inkscape"
   xmlns:sodipodi="http://sodipodi.sourceforge.net/DTD/sodipodi-0.dtd"
   xmlns="http://www.w3.org/2000/svg"
   xmlns:svg="http://www.w3.org/2000/svg"><defs
   id="defs20" /><sodipodi:namedview
   id="namedview18"
   pagecolor="#ffffff"
   bordercolor="#666666"
   borderopacity="1.0"
   inkscape:pageshadow="2"
   inkscape:pageopacity="0.0"
   inkscape:pagecheckerboard="0"
   showgrid="false"
   inkscape:zoom="0.90588229"
   inkscape:cx="561.33121"
   inkscape:cy="396.85068"
   inkscape:window-width="1920"
   inkscape:window-height="1078"
   inkscape:window-x="1920"
   inkscape:window-y="1467"
   inkscape:window-maximized="1"
   inkscape:current-layer="svg2" />

  <g
   transform="matrix(5.4660699,0,0,-5.4660699,-618.26155,2313.4359)"
   id="g10">

      <g
   transform="translate(343.2459,320.938)"
   id="g162">
        <path
   id="path164"
   style="fill:#051220;fill-opacity:1;fill-rule:nonzero;stroke:none"
   d="m 0,0 c 0,9.875 -1.609,19.373 -4.523,28.286 -2.274,-2.607 -4.671,-5.131 -7.162,-7.52 -0.616,-0.591 -1.251,-1.168 -1.882,-1.747 1.492,-6.1 2.296,-12.466 2.296,-19.019 0,-40.77 -30.588,-74.496 -70.015,-79.52 V -90.889 C -35.627,-85.805 0,-46.993 0,0" />
      </g>
      <g
   transform="translate(171.5701,320.938)"
   id="g166">
        <path
   id="path168"
   style="fill:#051220;fill-opacity:1;fill-rule:nonzero;stroke:none"
   d="m 0,0 c 0,6.553 0.804,12.918 2.296,19.018 -0.632,0.58 -1.267,1.157 -1.883,1.748 -2.489,2.389 -4.887,4.913 -7.16,7.52 C -9.661,19.373 -11.271,9.875 -11.271,0 c 0,-46.993 35.626,-85.805 81.287,-90.889 V -79.52 C 30.589,-74.496 0,-40.77 0,0" />
      </g>
      <g
   transform="translate(195.9891,320.938)"
   id="g170">
        <path
   id="path172"
   style="fill:#051220;fill-opacity:1;fill-rule:nonzero;stroke:none"
   d="m 0,0 c 0,1.014 0.037,2.018 0.092,3.017 -0.633,0.35 -1.273,0.691 -1.897,1.052 -2.963,1.714 -5.887,3.599 -8.73,5.605 -0.466,-3.161 -0.736,-6.385 -0.736,-9.674 0,-33.507 24.715,-61.317 56.868,-66.243 v 11.405 C 19.687,-50.035 0,-27.279 0,0" />
      </g>
      <g
   transform="translate(318.826,320.938)"
   id="g174">
        <path
   id="path176"
   style="fill:#051220;fill-opacity:1;fill-rule:nonzero;stroke:none"
   d="M 0,0 C 0,3.289 -0.271,6.513 -0.735,9.674 -3.577,7.668 -6.503,5.783 -9.466,4.068 -10.091,3.707 -10.73,3.366 -11.363,3.016 -11.309,2.017 -11.271,1.013 -11.271,0 c 0,-27.279 -19.686,-50.035 -45.595,-54.838 V -66.243 C -24.715,-61.317 0,-33.507 0,0" />
      </g>
      <g
   transform="translate(292.7342,317.1031)"
   id="g178">
        <path
   id="path180"
   style="fill:#00abf7;fill-opacity:1;fill-rule:nonzero;stroke:none"
   d="m 0,0 c -3.255,-1.241 -6.573,-2.347 -9.901,-3.278 -0.738,-0.206 -1.48,-0.397 -2.221,-0.588 -2.524,-9.442 -9.558,-17.052 -18.652,-20.363 V -36.006 C -14.204,-31.767 -1.622,-17.456 0,0" />
      </g>
      <g
   transform="translate(222.9324,313.2369)"
   id="g182">
        <path
   id="path184"
   style="fill:#00abf7;fill-opacity:1;fill-rule:nonzero;stroke:none"
   d="M 0,0 C -0.741,0.191 -1.483,0.382 -2.221,0.588 -5.548,1.52 -8.867,2.625 -12.122,3.865 -10.499,-13.59 2.082,-27.9 18.653,-32.14 v 11.778 C 9.558,-17.052 2.524,-9.441 0,0" />
      </g>
      <g
   transform="translate(331.4373,365.8111)"
   id="g186">
        <path
   id="path188"
   style="fill:#051220;fill-opacity:1;fill-rule:nonzero;stroke:none"
   d="m 0,0 c -2.419,-3.253 -5.029,-6.354 -7.819,-9.283 -3.168,-3.328 -6.568,-6.434 -10.167,-9.298 -3.019,-2.401 -6.18,-4.63 -9.468,-6.673 -4.175,-2.594 -8.555,-4.888 -13.11,-6.849 -3.436,-1.478 -6.971,-2.766 -10.592,-3.854 -7.309,-2.196 -14.968,-3.572 -22.873,-4.018 -1.867,-0.104 -3.744,-0.163 -5.636,-0.163 -1.892,0 -3.77,0.059 -5.636,0.163 -7.904,0.446 -15.563,1.822 -22.872,4.018 -3.622,1.088 -7.157,2.376 -10.592,3.854 -4.556,1.961 -8.936,4.255 -13.112,6.85 -3.288,2.043 -6.449,4.271 -9.467,6.672 -3.599,2.864 -6.999,5.97 -10.167,9.298 -2.789,2.929 -5.4,6.03 -7.818,9.283 -2.056,-3.634 -3.864,-7.421 -5.415,-11.341 2.7,-3.256 5.584,-6.354 8.634,-9.28 3.484,-3.344 7.189,-6.458 11.086,-9.326 3.265,-2.405 6.665,-4.636 10.19,-6.676 4.498,-2.603 9.197,-4.895 14.065,-6.853 3.689,-1.483 7.474,-2.774 11.345,-3.858 7.736,-2.166 15.809,-3.513 24.123,-3.933 v -4.833 -6.904 -11.196 -11.416 -14.756 -11.301 -13.182 -11.3 c 1.866,-0.115 3.742,-0.192 5.636,-0.192 1.894,0 3.769,0.077 5.636,0.192 v 11.3 13.182 11.301 14.756 11.416 11.196 6.904 4.833 c 8.314,0.42 16.387,1.767 24.123,3.933 3.871,1.084 7.657,2.375 11.345,3.858 4.868,1.958 9.567,4.249 14.065,6.853 3.524,2.039 6.924,4.271 10.189,6.675 3.898,2.868 7.603,5.983 11.087,9.327 3.051,2.926 5.934,6.024 8.634,9.28 C 3.864,-7.421 2.055,-3.634 0,0" />
      </g>

  </g>
</svg>
